<svg width="40" height="40" viewBox="0 0 40 40" fill="none" xmlns="http://www.w3.org/2000/svg">
<g clip-path="url(#clip0_2_1349)">
<path d="M28.25 13.25C27.5318 13.7566 26.7366 14.1441 25.895 14.3975C25.4433 13.8781 24.843 13.51 24.1753 13.3429C23.5075 13.1759 22.8046 13.2179 22.1616 13.4633C21.5185 13.7088 20.9663 14.1458 20.5797 14.7153C20.1931 15.2848 19.9908 15.9593 20 16.6475V17.3975C18.682 17.4317 17.376 17.1394 16.1983 16.5466C15.0206 15.9538 13.7577 14.5423 13 13.4633C13 13.4633 10.25 20.75 17 23.75C15.4554 24.7985 13.6154 25.3242 11.75 25.25C18.5 29 26.75 25.25 26.75 16.625C26.7493 16.4161 26.7292 16.2077 26.69 16.0025C27.4554 15.2476 27.9956 14.2945 28.25 13.25Z" stroke="#FAFAFA" stroke-width="1.8" stroke-linecap="round" stroke-linejoin="round"/>
</g>
<rect x="0.5" y="0.5" width="39" height="39" rx="5.5" stroke="#FAFAFA" stroke-opacity="0.15"/>
<defs>
<clipPath id="clip0_2_1349">
<rect width="18" height="18" fill="white" transform="translate(11 11)"/>
</clipPath>
</defs>
</svg>
